name ../VV_Laxity/vv_45.mot
datacolumns  10
datarows 46
range   21.00000000 21.45000000
cursor 1.0 1.0 0.0
keys m_key
wrap
enforce_loops no
enforce_constraints no
calc_derivatives -1.000000
event_color 0.000000 0.000000 0.000000
endheader
            time femur_r_force_vx femur_r_force_vy femur_r_force_vz femur_r_force_px femur_r_force_py femur_r_force_pz femur_r_torque_x femur_r_torque_y femur_r_torque_z 
     21.00000000       0.00000000       0.00000000       0.00000000      -0.05123681      -0.49427285       0.00000000       6.23018369      -6.23018369       0.00000000 
     21.01000000       0.00000000       0.00000000       0.00000000      -0.05123681      -0.49427285       0.00000000       6.24254178      -6.24254178       0.00000000 
     21.02000000       0.00000000       0.00000000       0.00000000      -0.05123681      -0.49427285       0.00000000       6.25482045      -6.25482045       0.00000000 
     21.03000000       0.00000000       0.00000000       0.00000000      -0.05123681      -0.49427285       0.00000000       6.26701934      -6.26701934       0.00000000 
     21.04000000       0.00000000       0.00000000       0.00000000      -0.05123681      -0.49427285       0.00000000       6.27913809      -6.27913809       0.00000000 
     21.05000000       0.00000000       0.00000000       0.00000000      -0.05123681      -0.49427285       0.00000000       6.29117634      -6.29117634       0.00000000 
     21.06000000       0.00000000       0.00000000       0.00000000      -0.05123681      -0.49427285       0.00000000       6.30313375      -6.30313375       0.00000000 
     21.07000000       0.00000000       0.00000000       0.00000000      -0.05123681      -0.49427285       0.00000000       6.31500996      -6.31500996       0.00000000 
     21.08000000       0.00000000       0.00000000       0.00000000      -0.05123681      -0.49427285       0.00000000       6.32680463      -6.32680463       0.00000000 
     21.09000000       0.00000000       0.00000000       0.00000000      -0.05123681      -0.49427285       0.00000000       6.33851740      -6.33851740       0.00000000 
     21.10000000       0.00000000       0.00000000       0.00000000      -0.05123681      -0.49427285       0.00000000       6.35014793      -6.35014793       0.00000000 
     21.11000000       0.00000000       0.00000000       0.00000000      -0.05123681      -0.49427285       0.00000000       6.36169589      -6.36169589       0.00000000 
     21.12000000       0.00000000       0.00000000       0.00000000      -0.05123681      -0.49427285       0.00000000       6.37316093      -6.37316093       0.00000000 
     21.13000000       0.00000000       0.00000000       0.00000000      -0.05123681      -0.49427285       0.00000000       6.38454272      -6.38454272       0.00000000 
     21.14000000       0.00000000       0.00000000       0.00000000      -0.05123681      -0.49427285       0.00000000       6.39584092      -6.39584092       0.00000000 
     21.15000000       0.00000000       0.00000000       0.00000000      -0.05123681      -0.49427285       0.00000000       6.40705520      -6.40705520       0.00000000 
     21.16000000       0.00000000       0.00000000       0.00000000      -0.05123681      -0.49427285       0.00000000       6.41818524      -6.41818524       0.00000000 
     21.17000000       0.00000000       0.00000000       0.00000000      -0.05123681      -0.49427285       0.00000000       6.42923070      -6.42923070       0.00000000 
     21.18000000       0.00000000       0.00000000       0.00000000      -0.05123681      -0.49427285       0.00000000       6.44019127      -6.44019127       0.00000000 
     21.19000000       0.00000000       0.00000000       0.00000000      -0.05123681      -0.49427285       0.00000000       6.45106661      -6.45106661       0.00000000 
     21.20000000       0.00000000       0.00000000       0.00000000      -0.05123681      -0.49427285       0.00000000       6.46185642      -6.46185642       0.00000000 
     21.21000000       0.00000000       0.00000000       0.00000000      -0.05123681      -0.49427285       0.00000000       6.47256038      -6.47256038       0.00000000 
     21.22000000       0.00000000       0.00000000       0.00000000      -0.05123681      -0.49427285       0.00000000       6.48317816      -6.48317816       0.00000000 
     21.23000000       0.00000000       0.00000000       0.00000000      -0.05123681      -0.49427285       0.00000000       6.49370946      -6.49370946       0.00000000 
     21.24000000       0.00000000       0.00000000       0.00000000      -0.05123681      -0.49427285       0.00000000       6.50415398      -6.50415398       0.00000000 
     21.25000000       0.00000000       0.00000000       0.00000000      -0.05123681      -0.49427285       0.00000000       6.51451140      -6.51451140       0.00000000 
     21.26000000       0.00000000       0.00000000       0.00000000      -0.05123681      -0.49427285       0.00000000       6.52478141      -6.52478141       0.00000000 
     21.27000000       0.00000000       0.00000000       0.00000000      -0.05123681      -0.49427285       0.00000000       6.53496373      -6.53496373       0.00000000 
     21.28000000       0.00000000       0.00000000       0.00000000      -0.05123681      -0.49427285       0.00000000       6.54505805      -6.54505805       0.00000000 
     21.29000000       0.00000000       0.00000000       0.00000000      -0.05123681      -0.49427285       0.00000000       6.55506407      -6.55506407       0.00000000 
     21.30000000       0.00000000       0.00000000       0.00000000      -0.05123681      -0.49427285       0.00000000       6.56498150      -6.56498150       0.00000000 
     21.31000000       0.00000000       0.00000000       0.00000000      -0.05123681      -0.49427285       0.00000000       6.57481006      -6.57481006       0.00000000 
     21.32000000       0.00000000       0.00000000       0.00000000      -0.05123681      -0.49427285       0.00000000       6.58454944      -6.58454944       0.00000000 
     21.33000000       0.00000000       0.00000000       0.00000000      -0.05123681      -0.49427285       0.00000000       6.59419937      -6.59419937       0.00000000 
     21.34000000       0.00000000       0.00000000       0.00000000      -0.05123681      -0.49427285       0.00000000       6.60375956      -6.60375956       0.00000000 
     21.35000000       0.00000000       0.00000000       0.00000000      -0.05123681      -0.49427285       0.00000000       6.61322973      -6.61322973       0.00000000 
     21.36000000       0.00000000       0.00000000       0.00000000      -0.05123681      -0.49427285       0.00000000       6.62260961      -6.62260961       0.00000000 
     21.37000000       0.00000000       0.00000000       0.00000000      -0.05123681      -0.49427285       0.00000000       6.63189892      -6.63189892       0.00000000 
     21.38000000       0.00000000       0.00000000       0.00000000      -0.05123681      -0.49427285       0.00000000       6.64109738      -6.64109738       0.00000000 
     21.39000000       0.00000000       0.00000000       0.00000000      -0.05123681      -0.49427285       0.00000000       6.65020473      -6.65020473       0.00000000 
     21.40000000       0.00000000       0.00000000       0.00000000      -0.05123681      -0.49427285       0.00000000       6.65922070      -6.65922070       0.00000000 
     21.41000000       0.00000000       0.00000000       0.00000000      -0.05123681      -0.49427285       0.00000000       6.66814502      -6.66814502       0.00000000 
     21.42000000       0.00000000       0.00000000       0.00000000      -0.05123681      -0.49427285       0.00000000       6.67697743      -6.67697743       0.00000000 
     21.43000000       0.00000000       0.00000000       0.00000000      -0.05123681      -0.49427285       0.00000000       6.68571768      -6.68571768       0.00000000 
     21.44000000       0.00000000       0.00000000       0.00000000      -0.05123681      -0.49427285       0.00000000       6.69436551      -6.69436551       0.00000000 
     21.45000000       0.00000000       0.00000000       0.00000000      -0.05123681      -0.49427285       0.00000000       6.70292066      -6.70292066       0.00000000 
